<svg id="visual" viewBox="0 0 1300 900" width="1300" height="900" xmlns="http://www.w3.org/2000/svg" xmlns:xlink="http://www.w3.org/1999/xlink" version="1.1"><path d="M779 900L764 885C749 870 719 840 707 810C695 780 701 750 715.2 720C729.3 690 751.7 660 768.3 630C785 600 796 570 777.2 540C758.3 510 709.7 480 683.2 450C656.7 420 652.3 390 659.7 360C667 330 686 300 708.3 270C730.7 240 756.3 210 744.5 180C732.7 150 683.3 120 661.2 90C639 60 644 30 646.5 15L649 0L1300 0L1300 15C1300 30 1300 60 1300 90C1300 120 1300 150 1300 180C1300 210 1300 240 1300 270C1300 300 1300 330 1300 360C1300 390 1300 420 1300 450C1300 480 1300 510 1300 540C1300 570 1300 600 1300 630C1300 660 1300 690 1300 720C1300 750 1300 780 1300 810C1300 840 1300 870 1300 885L1300 900Z" fill="#ffffff" stroke-linecap="round" stroke-linejoin="miter"></path></svg>